<svg xmlns="http://www.w3.org/2000/svg" version="1.1" xmlns:xlink="http://www.w3.org/1999/xlink" xmlns:svgjs="http://svgjs.dev/svgjs" width="2000" height="787" viewBox="0 0 2000 787"><g transform="matrix(1,0,0,1,-1.212121192292102,-2.0467157235421496)"><svg viewBox="0 0 396 156" data-background-color="#ffffff" preserveAspectRatio="xMidYMid meet" height="787" width="2000" xmlns="http://www.w3.org/2000/svg" xmlns:xlink="http://www.w3.org/1999/xlink"><g id="tight-bounds" transform="matrix(1,0,0,1,0.23999999607383415,0.4057022272840811)"><svg viewBox="0 0 395.52 155.18859554543184" height="155.18859554543184" width="395.52"><g><svg viewBox="0 0 583.6687225922249 229.0117549627924" height="155.18859554543184" width="395.52"><g transform="matrix(1,0,0,1,188.1487225922249,65.36214589051019)"><svg viewBox="0 0 395.52 98.28746318177201" height="98.28746318177201" width="395.52"><g id="textblocktransform"><svg viewBox="0 0 395.52 98.28746318177201" height="98.28746318177201" width="395.52" id="textblock"><g><svg viewBox="0 0 395.52 98.28746318177201" height="98.28746318177201" width="395.52"><g transform="matrix(1,0,0,1,0,0)"><svg width="395.52" viewBox="1.39 -35.35 144.20999999577504 35.84" height="98.28746318177201" data-palette-color="#03aed2"><path d="M11.13 0.49L11.13 0.49Q8.42 0.49 6.25-0.85L6.25-0.85Q4.05-2.2 2.72-4.47 1.39-6.74 1.39-9.55L1.39-9.55 1.39-25.39Q1.39-28.13 2.73-30.37L2.73-30.37Q4.05-32.64 6.27-34 8.5-35.35 11.13-35.35L11.13-35.35Q13.89-35.35 16.11-34.03L16.11-34.03Q18.33-32.69 19.64-30.44 20.95-28.2 20.95-25.39L20.95-25.39 20.95-23.1Q20.95-22.9 20.7-22.9L20.7-22.9 15.09-22.9Q14.89-22.9 14.89-23.1L14.89-23.1 14.89-25Q14.89-26.9 13.82-28.15 12.74-29.39 11.13-29.39L11.13-29.39Q9.69-29.39 8.57-28.2 7.45-27 7.45-25.39L7.45-25.39 7.45-9.55Q7.45-7.91 8.54-6.73 9.64-5.54 11.13-5.54L11.13-5.54Q12.74-5.54 13.82-6.7 14.89-7.86 14.89-9.55L14.89-9.55 14.89-12.01 11.4-12.01Q11.13-12.01 11.13-12.26L11.13-12.26 11.13-17.85Q11.13-18.09 11.4-18.09L11.4-18.09 20.75-18.09Q20.95-18.09 20.95-17.85L20.95-17.85 20.95-9.55Q20.95-6.74 19.63-4.47L19.63-4.47Q18.29-2.2 16.09-0.85 13.89 0.49 11.13 0.49ZM30.32 0L30.32 0 24.66 0Q24.46 0 24.46-0.24L24.46-0.24 24.56-34.59Q24.56-34.79 24.75-34.79L24.75-34.79 34.86-34.79Q37.57-34.79 39.84-33.47L39.84-33.47Q42.11-32.15 43.47-29.93 44.82-27.71 44.82-24.9L44.82-24.9Q44.82-23.07 44.26-21.58L44.26-21.58Q43.7-20.09 42.95-19.07 42.21-18.04 41.6-17.55L41.6-17.55Q44.31-14.55 44.31-10.5L44.31-10.5 44.36-0.24Q44.36 0 44.11 0L44.11 0 38.45 0Q38.25 0 38.25-0.15L38.25-0.15 38.25-10.5Q38.25-12.3 36.98-13.62 35.72-14.94 33.86-14.94L33.86-14.94 30.56-14.94 30.52-0.24Q30.52 0 30.32 0ZM34.86-28.81L34.86-28.81 30.56-28.81 30.56-20.95 34.86-20.95Q36.4-20.95 37.61-22.09 38.82-23.24 38.82-24.9L38.82-24.9Q38.82-26.49 37.64-27.65 36.47-28.81 34.86-28.81ZM46.87-0.24L46.87-0.24 53.07-34.59Q53.12-34.79 53.32-34.79L53.32-34.79 60.57-34.79Q60.76-34.79 60.81-34.59L60.81-34.59 66.77-0.24Q66.79 0 66.57 0L66.57 0 61.03 0Q60.79 0 60.76-0.24L60.76-0.24 60.22-3.91 53.41-3.91 52.88-0.24Q52.85 0 52.63 0L52.63 0 47.07 0Q46.87 0 46.87-0.24ZM59.22-9.25L57.17-23.29 56.88-25.15 56.66-23.29 54.41-9.25 59.22-9.25ZM75.75 0L75.75 0 70.09 0Q69.89 0 69.89-0.24L69.89-0.24 69.99-34.59Q69.99-34.79 70.18-34.79L70.18-34.79 76.29-34.79Q76.48-34.79 76.63-34.59L76.63-34.59 81.19-28 85.73-34.59Q85.88-34.79 86.1-34.79L86.1-34.79 92.23-34.79Q92.45-34.79 92.45-34.59L92.45-34.59 92.55-0.24Q92.55 0 92.35 0L92.35 0 86.69 0Q86.49 0 86.49-0.24L86.49-0.24 86.44-25.76 81.19-18.14 75.99-25.76 75.94-0.24Q75.94 0 75.75 0ZM102.63 0L102.63 0 96.96 0Q96.72 0 96.72-0.24L96.72-0.24 96.77-34.59Q96.77-34.79 96.96-34.79L96.96-34.79 102.58-34.79Q102.77-34.79 102.77-34.59L102.77-34.59 102.82-0.24Q102.82 0 102.63 0ZM113.07 0L113.07 0 107.46 0Q107.21 0 107.21-0.24L107.21-0.24 107.31-34.59Q107.31-34.79 107.51-34.79L107.51-34.79 123.52-34.79Q123.77-34.79 123.77-34.59L123.77-34.59 123.77-28.96Q123.77-28.76 123.57-28.76L123.57-28.76 113.32-28.76 113.32-21 123.57-21Q123.77-21 123.77-20.75L123.77-20.75 123.82-15.09Q123.82-14.89 123.57-14.89L123.57-14.89 113.32-14.89 113.32-0.24Q113.32 0 113.07 0ZM138.68 0L138.68 0 132.94 0Q132.77 0 132.77-0.2L132.77-0.2 132.82-14.4 126.13-34.59Q126.08-34.79 126.28-34.79L126.28-34.79 131.85-34.79Q132.09-34.79 132.14-34.59L132.14-34.59 135.82-21.14 139.58-34.59Q139.63-34.79 139.83-34.79L139.83-34.79 145.44-34.79Q145.64-34.79 145.59-34.59L145.59-34.59 138.83-14.6 138.88-0.2Q138.88 0 138.68 0Z" opacity="1" transform="matrix(1,0,0,1,0,0)" fill="#03aed2" class="wordmark-text-0" data-fill-palette-color="primary" id="text-0"></path></svg></g></svg></g></svg></g></svg></g><g><svg viewBox="0 0 164.9454114341249 229.0117549627924" height="229.0117549627924" width="164.9454114341249"><g><svg xmlns="http://www.w3.org/2000/svg" xmlns:xlink="http://www.w3.org/1999/xlink" version="1.1" x="0" y="0" viewBox="11.8 9.3 81.10000000000001 112.60000000000001" enable-background="new 0 0 108.3 129.2" xml:space="preserve" height="229.0117549627924" width="164.9454114341249" class="icon-icon-0" data-fill-palette-color="accent" id="icon-0"><g fill="#03aed2" data-fill-palette-color="accent"><g fill="#03aed2" data-fill-palette-color="accent"><g fill="#03aed2" data-fill-palette-color="accent"><g fill="#03aed2" data-fill-palette-color="accent"><path fill="#03aed2" d="M71 121.4C67 121.4 63.8 119.9 62.1 118.5L61.8 118.2 50.2 106 54 102.4 65.4 114.5C66.3 115.1 71.7 118.5 78.3 113.5 80.3 112 81.4 110.3 81.6 108.5 81.9 105.3 79.5 102.4 79.4 102.4L65.8 88.4 69.6 84.7 83.2 98.8C83.4 99.1 87.3 103.5 86.7 109 86.4 112.4 84.6 115.3 81.3 117.7 77.8 120.5 74.2 121.4 71 121.4" data-fill-palette-color="accent"></path></g></g></g><g fill="#03aed2" data-fill-palette-color="accent"><g fill="#03aed2" data-fill-palette-color="accent"><g fill="#03aed2" data-fill-palette-color="accent"><path fill="#03aed2" d="M72 109.4C71.5 109.4 71.1 109.2 70.7 108.9L58.3 95.9C57.6 95.2 57.7 94.1 58.4 93.4S60.2 92.8 60.9 93.5L73.3 106.5C74 107.2 73.9 108.3 73.2 109 72.8 109.2 72.4 109.4 72 109.4" data-fill-palette-color="accent"></path></g></g></g><g fill="#03aed2" data-fill-palette-color="accent"><g fill="#03aed2" data-fill-palette-color="accent"><g fill="#03aed2" data-fill-palette-color="accent"><path fill="#03aed2" d="M30.1 109.7C29.7 109.7 29.2 109.5 28.9 109.2 28.2 108.5 28.2 107.4 28.9 106.7L67.8 67C69.6 65.4 74.3 61 75.5 59.2 77.2 56.7 77.3 53.2 77.3 49.8 77.2 36.1 66.1 25 52.4 25S27.6 36.1 27.6 49.8C27.6 55.1 28.6 59 30.6 61.8 33.6 65.9 44.8 76.7 44.9 76.8 45.6 77.5 45.6 78.6 44.9 79.3S43.1 80 42.4 79.3C42 78.8 31 68.2 27.8 63.9 25.3 60.5 24.1 55.9 24.1 49.9 24.1 34.3 36.8 21.6 52.4 21.6S80.7 34.3 80.7 49.9C80.7 53.8 80.5 57.9 78.3 61.2 76.7 63.7 70.8 69 70.1 69.6L31.3 109.2C31 109.5 30.5 109.7 30.1 109.7" data-fill-palette-color="accent"></path></g></g></g><g fill="#03aed2" data-fill-palette-color="accent"><g fill="#03aed2" data-fill-palette-color="accent"><g fill="#03aed2" data-fill-palette-color="accent"><path fill="#03aed2" d="M30.6 121.9C27.6 121.9 24.4 121 21.1 118.5 17.9 116 16 113.1 15.6 109.7 14.9 104.2 18.4 99.7 18.5 99.5L18.7 99.2 31.8 86.5 26.8 81.2C17.3 73.5 11.8 62 11.8 49.7 11.9 27.5 30 9.3 52.4 9.3S92.9 27.5 92.9 49.8C92.9 63.4 87.6 74.8 78 82L41.4 117.7C39.3 119.7 35.3 121.9 30.6 121.9M22.6 102.9C22.2 103.5 20.5 106.2 20.9 109.1 21.2 111 22.3 112.8 24.4 114.4 31.4 119.7 37.6 114.2 37.8 114L74.8 78C83.2 71.8 87.7 62.1 87.7 49.9 87.7 30.5 71.9 14.6 52.4 14.6S17.1 30.4 17.1 49.8C17.1 60.5 21.9 70.6 30.3 77.3L30.6 77.5 35.7 82.9 48.6 70.4 38 59.4C36.1 56.5 35 53.2 35 49.7 35 40.2 42.8 32.4 52.3 32.4S69.6 40.2 69.6 49.7C69.6 53.2 68.6 56.5 66.6 59.4L66.3 59.8 55.7 70.8zM42.3 56.4L52.4 66.8 62.5 56.4C63.8 54.5 64.4 52.2 64.4 49.9 64.4 43.3 59 37.9 52.4 37.9S40.4 43.3 40.4 49.9C40.4 52.2 41 54.4 42.3 56.4" data-fill-palette-color="accent"></path></g></g></g></g></svg></g></svg></g></svg></g><defs></defs></svg><rect width="395.52" height="155.18859554543184" fill="none" stroke="none" visibility="hidden"></rect></g></svg></g></svg>